<?xml version="1.0" standalone="no"?>
<!DOCTYPE svg PUBLIC "-//W3C//DTD SVG 20010904//EN"
 "http://www.w3.org/TR/2001/REC-SVG-20010904/DTD/svg10.dtd">
<svg version="1.0" xmlns="http://www.w3.org/2000/svg"
 width="700.000000pt" height="216.000000pt" viewBox="0 0 700.000000 216.000000"
 preserveAspectRatio="xMidYMid meet">

<g transform="translate(0.000000,216.000000) scale(0.100000,-0.100000)"
fill="#000000" stroke="none">
<path d="M5360 2157 c-3 -3 -89 -7 -190 -8 -102 -1 -191 -6 -197 -12 -15 -11
-16 -90 -4 -192 5 -38 12 -281 16 -540 3 -258 10 -605 15 -770 6 -165 10 -363
10 -441 0 -187 -8 -179 177 -165 129 9 1354 0 1666 -13 117 -5 117 -5 134 21
15 23 16 39 5 172 -15 182 -15 273 -1 360 9 55 8 111 -6 277 -14 171 -16 301
-13 714 2 401 0 513 -10 543 -8 20 -19 37 -25 38 -7 1 -142 2 -302 3 -159 1
-510 6 -780 10 -269 5 -492 6 -495 3z m932 -89 c174 -6 380 -9 457 -5 l140 5
8 -46 c8 -49 8 -95 -2 -567 -5 -190 -2 -346 7 -485 13 -207 14 -306 7 -525 -2
-66 0 -172 4 -236 l8 -115 -113 3 c-363 11 -1484 20 -1589 12 -67 -5 -123 -8
-124 -7 -7 9 -27 806 -30 1221 -2 268 -9 530 -14 582 -6 52 -11 110 -11 130
l0 35 118 1 c64 1 176 5 247 9 149 8 432 5 887 -12z"/>
<path d="M5889 1841 c-24 -16 -196 -181 -381 -367 -363 -365 -387 -396 -373
-472 4 -20 13 -48 20 -63 8 -14 127 -139 265 -278 l251 -251 316 0 317 0 248
247 c154 154 256 263 268 289 25 50 25 97 1 149 -23 49 -722 749 -764 764 -54
21 -119 13 -168 -18z m-39 -646 c-243 -243 -258 -255 -293 -255 -30 0 -46 8
-80 40 l-42 39 275 276 275 275 60 -60 60 -60 -255 -255z m89 -280 c-193 -192
-198 -194 -275 -123 l-45 42 183 183 183 183 60 -60 60 -60 -166 -165z m64
-305 c-58 -55 -98 -55 -156 -1 l-42 40 60 61 60 60 60 -60 60 -61 -42 -39z"/>
<path d="M720 2140 c-52 -5 -225 -10 -383 -12 -159 -1 -291 -6 -294 -11 -3 -4
-7 -450 -9 -990 -3 -671 -8 -997 -15 -1030 -10 -41 -9 -51 3 -64 24 -24 88
-26 182 -8 91 18 84 18 501 -4 133 -8 482 -11 948 -9 l739 3 20 24 c18 23 19
39 18 240 -1 119 3 293 10 386 6 94 14 288 17 432 4 221 3 277 -12 369 -16 93
-17 147 -12 381 l6 274 -26 10 c-34 13 -1561 21 -1693 9z m610 -77 c-207 -14
-432 -57 -615 -118 -133 -44 -240 -89 -250 -105 -8 -13 -31 -164 -46 -300 -7
-63 -13 -214 -13 -335 0 -338 38 -543 136 -745 43 -89 63 -117 132 -186 137
-137 259 -180 481 -171 141 6 232 25 360 76 236 95 410 296 485 562 68 241 68
615 0 945 -36 176 -82 334 -99 343 -14 8 -122 22 -266 35 -22 2 133 2 345 -1
212 -2 387 -6 389 -8 2 -2 -1 -37 -8 -77 -13 -86 -7 -461 8 -528 14 -60 14
-507 0 -645 -6 -60 -12 -209 -14 -330 -1 -121 -3 -258 -4 -303 l-1 -84 -897 7
c-494 4 -972 7 -1063 8 -91 1 -194 -2 -229 -7 l-63 -9 6 59 c3 32 7 477 8 987
l3 929 35 -8 c41 -9 377 -5 530 6 58 4 238 7 400 7 162 0 275 -2 250 -4z m144
-274 c80 -63 73 -199 -13 -244 -39 -20 -69 -19 -110 3 -89 48 -96 193 -12 245
37 24 102 22 135 -4z m378 -94 c56 -232 70 -563 31 -745 -39 -181 -107 -315
-213 -419 -141 -140 -329 -211 -559 -211 -378 0 -569 272 -548 780 8 186 69
553 97 584 5 4 32 1 62 -9 29 -9 58 -18 64 -20 8 -2 4 -33 -12 -102 -80 -340
-85 -667 -14 -856 65 -172 220 -254 434 -227 329 41 509 227 556 578 18 131 8
352 -24 524 -14 76 -26 144 -26 151 0 14 90 46 120 43 10 -1 21 -25 32 -71z
m-734 9 c69 -48 68 -184 -2 -229 -95 -63 -196 45 -151 161 27 72 101 105 153
68z"/>
<path d="M2563 2132 c-16 -17 -17 -59 -14 -712 1 -301 8 -620 17 -767 8 -139
16 -330 18 -424 l4 -172 27 -15 c24 -12 194 -14 1151 -16 1063 -1 1124 0 1141
17 16 15 17 34 14 155 -1 75 -7 182 -13 237 -6 55 -13 431 -17 835 -6 691 -7
738 -26 793 -11 34 -28 64 -40 70 -31 18 -2243 17 -2262 -1z m2222 -74 c18
-18 24 -203 25 -789 0 -415 4 -655 11 -690 6 -30 14 -147 17 -262 6 -189 6
-208 -10 -213 -9 -3 -497 -2 -1085 1 l-1068 5 -12 142 c-6 78 -10 145 -7 149
2 4 -3 114 -11 245 -8 141 -15 479 -17 824 l-3 585 125 5 c192 8 2027 6 2035
-2z"/>
<path d="M2921 2002 c-57 -28 -76 -64 -76 -138 0 -60 3 -66 36 -100 41 -41 84
-53 189 -54 196 -1 480 -89 668 -207 282 -177 481 -414 596 -711 50 -130 84
-288 94 -440 9 -141 17 -162 73 -205 69 -51 184 -22 219 55 50 110 -5 475
-110 732 -183 450 -564 817 -1018 982 -246 89 -581 132 -671 86z"/>
<path d="M2944 1302 c-87 -28 -130 -139 -85 -222 27 -52 69 -72 172 -81 158
-15 290 -65 403 -153 164 -127 267 -321 282 -528 8 -110 27 -149 87 -179 75
-39 158 -13 202 62 23 39 25 132 5 254 -50 311 -274 607 -570 751 -156 76
-406 124 -496 96z"/>
<path d="M3020 604 c-82 -36 -133 -116 -133 -209 0 -190 205 -293 366 -182 15
10 41 42 57 70 69 120 18 270 -109 323 -44 18 -137 17 -181 -2z"/>
</g>
</svg>
